<svg width="222" height="215" viewBox="0 0 222 215" fill="none" xmlns="http://www.w3.org/2000/svg">
<path d="M101.077 202.033C83.1795 200.799 44.8153 198.145 22.4179 167.413C-1.6601 134.373 2.03644 81.6638 25.7581 64.3938C46.0811 49.597 68.4784 69.9998 95.168 52.2511C115.188 38.9382 110.683 22.0724 131.304 10.8126C148.377 1.48879 172.535 1.54198 189.411 11.6742C231.52 36.9596 213.186 115.879 211.803 121.533C208.149 136.452 201.628 163.094 177.183 182.625C148.776 205.325 115.427 203.022 101.077 202.027V202.033Z" fill="#F4F4F4"/>
<path d="M183.46 141.25C180.769 141.09 178.088 140.766 175.429 140.319C175.242 140.287 175.078 140.601 175.03 140.718C174.913 140.995 174.87 141.362 174.886 141.654C174.902 142.064 174.976 142.872 175.492 142.957C178.152 143.404 180.832 143.728 183.524 143.888C184.29 143.936 184.311 141.303 183.46 141.25Z" fill="#FE803A"/>
<path d="M61.9749 73.6167C67.9532 73.5475 73.9315 73.723 79.8992 74.1326C80.6598 74.1858 80.6864 71.553 79.8354 71.4945C73.873 71.0849 67.8894 70.9094 61.9111 70.9786C61.108 70.9892 61.1559 73.6273 61.9749 73.6167Z" fill="#FE803A"/>
<path d="M206.038 74.8187C207.815 73.372 209.07 71.4945 210.602 69.8138C211.676 68.633 213.112 67.399 214.83 67.5852C216.91 67.8139 218.032 69.9308 218.559 71.7338C219.085 73.5369 219.037 75.6165 218.585 77.5206C218.133 79.4248 217.239 81.3821 216.165 83.116C215.612 84.0042 215.011 84.8712 214.351 85.685C213.692 86.4987 212.942 87.5891 211.974 87.9667C211.128 88.2965 209.953 87.8178 209.155 87.5306C208.299 87.2221 207.48 86.8232 206.698 86.3498C205.134 85.3977 203.73 84.1638 202.581 82.733C199.98 79.4886 198.603 75.2602 199.097 71.1115C199.198 70.2818 196.72 70.9732 196.624 71.7817C196.129 75.9516 197.416 80.196 199.969 83.5096C201.251 85.1743 202.804 86.6104 204.613 87.6848C206.554 88.8337 209.011 89.8708 211.298 89.3708C214.011 88.7805 215.846 86.5679 217.404 84.4297C218.787 82.5309 219.936 80.4406 220.675 78.2014C221.377 76.0793 221.649 73.8028 221.213 71.6009C220.787 69.4521 219.638 67.0959 217.42 66.3566C215.022 65.5587 212.165 66.7342 210.267 68.1862C207.98 69.9308 206.655 72.6008 204.437 74.4038C204.139 74.6485 203.746 75.1112 204.294 75.3134C204.799 75.4995 205.661 75.1432 206.043 74.8294L206.038 74.8187Z" fill="#1FC8FE"/>
<path d="M156.526 48.0972C163.382 58.6602 169.483 69.7126 174.764 81.1426C176.248 84.3552 177.668 87.5943 179.025 90.8653C179.227 91.36 179.642 91.2855 179.839 90.8441C180.089 90.2909 180.019 89.525 179.791 88.9772C174.929 77.2706 169.244 65.915 162.771 55.0222C160.925 51.9107 159.016 48.8365 157.048 45.8048C156.718 45.2942 156.34 46.0016 156.271 46.2994C156.133 46.8845 156.191 47.5866 156.521 48.0972H156.526Z" fill="#FE803A"/>
<path d="M84.2926 76.8504C79.4791 67.4947 76.0272 57.4316 74.3784 47.0281C73.5646 41.9061 73.1923 36.7257 73.2881 31.5452C73.3838 26.3647 73.7614 21.5034 75.1443 16.7377C76.4102 12.3657 78.8781 8.46706 82.7555 5.98852C86.2712 3.73868 90.4517 2.80258 94.5844 2.65897C103.637 2.34517 112.604 5.69599 120.327 10.1903C128.497 14.9453 135.592 21.3544 141.831 28.4124C142.618 29.306 143.395 30.2102 144.161 31.125C144.538 31.5718 144.852 30.9814 144.937 30.6304C145.059 30.1038 145.059 29.2741 144.687 28.8326C138.427 21.3544 131.326 14.4507 123.088 9.17446C115.317 4.20673 106.169 0.339992 96.8449 0.020866C92.542 -0.128059 88.1168 0.504874 84.2234 2.41431C80.0695 4.4514 77.0165 7.95646 75.2347 12.1955C73.2402 16.9345 72.6285 22.2107 72.3041 27.3008C71.9531 32.7845 72.1126 38.2947 72.7349 43.7571C73.9795 54.5967 77.1016 65.213 81.7289 75.0899C82.3034 76.3185 82.9044 77.5312 83.5214 78.7333C83.7554 79.1907 84.1224 79.1854 84.3351 78.712C84.5692 78.1961 84.5532 77.3557 84.2873 76.8451L84.2926 76.8504Z" fill="#FE803A"/>
<path d="M152.649 89.6634H140.171C145.628 87.387 151.038 83.9085 155.883 79.4354C171.153 65.3513 176.009 46.6133 166.935 36.7736C162.335 31.7846 155.074 30.0241 146.495 31.8059C138.682 33.4334 130.518 37.8852 123.518 44.3422C117.939 49.4855 113.758 55.2563 111.131 60.9793C108.429 55.0861 104.179 49.3206 98.7754 44.3422C83.4999 30.2581 64.4374 26.9339 55.3583 36.7683C46.2845 46.608 51.1405 65.346 66.4107 79.4301C71.2561 83.9032 76.6653 87.3816 82.1223 89.6581H69.6445C58.2677 89.6581 49.0449 98.8808 49.0449 110.258V193.257C49.0449 204.634 58.2677 213.857 69.6445 213.857H152.644C164.021 213.857 173.243 204.634 173.243 193.257V110.258C173.243 98.8808 164.021 89.6581 152.644 89.6581L152.649 89.6634ZM129.183 50.4801C135.092 45.0337 141.847 41.2999 148.203 39.9808C149.431 39.7255 151.048 39.4862 152.766 39.4862C155.585 39.4862 158.681 40.1351 160.803 42.4381C166.505 48.6238 161.664 62.7611 150.224 73.3082C144.315 78.7546 137.56 82.4884 131.204 83.8074C127.965 84.4829 122.018 85.0627 118.604 81.3555C112.902 75.1698 117.742 61.0325 129.177 50.4854L129.183 50.4801ZM61.5015 42.4328C63.3843 40.3904 66.2192 39.4277 69.586 39.4277C76.4259 39.4277 85.4572 43.4167 93.1215 50.4801C99.0307 55.9265 103.291 62.3622 105.126 68.5905C106.062 71.7658 107.115 77.643 103.701 81.3502C100.286 85.052 94.3342 84.4776 91.1004 83.8021C84.7445 82.4777 77.9896 78.7493 72.0805 73.3029C60.6451 62.7558 55.7998 48.6185 61.5015 42.4328Z" fill="#ED1676"/>
<path d="M157.967 215H74.9677C62.9792 215 53.2246 205.245 53.2246 193.257V110.258C53.2246 98.2691 62.9792 88.5145 74.9677 88.5145H82.4087C78.377 86.3285 74.4837 83.5308 70.9574 80.2758C55.2138 65.7555 50.3312 46.3048 59.8358 35.9971C69.3458 25.6893 89.1316 28.9869 104.87 43.5018C109.694 47.9536 113.662 53.0597 116.449 58.3837C119.225 53.0862 123.204 47.9802 128.06 43.5018C135.213 36.9066 143.569 32.3537 151.585 30.6836C160.573 28.8114 168.216 30.6996 173.099 35.9971C182.604 46.3048 177.721 65.7555 161.977 80.2758C158.451 83.5308 154.552 86.3232 150.526 88.5145H157.967C169.956 88.5145 179.71 98.2691 179.71 110.258V193.257C179.71 205.245 169.956 215 157.967 215ZM74.9677 90.8069C64.2398 90.8069 55.517 99.535 55.517 110.258V193.257C55.517 203.985 64.2451 212.708 74.9677 212.708H157.967C168.695 212.708 177.418 203.98 177.418 193.257V110.258C177.418 99.5297 168.69 90.8069 157.967 90.8069H139.761L145.048 88.605C150.446 86.3551 155.76 82.8926 160.424 78.595C175.221 64.9471 180.051 46.9218 171.413 37.5555C167.099 32.8749 160.222 31.2314 152.053 32.9335C144.441 34.5184 136.474 38.8692 129.618 45.1932C124.336 50.0652 120.145 55.6924 117.497 61.4686L116.454 63.7397L115.412 61.4686C112.747 55.6605 108.566 50.028 103.322 45.1932C88.5252 31.5506 70.1649 28.1944 61.5272 37.5555C52.8895 46.9218 57.719 64.9471 72.5158 78.595C77.1803 82.8926 82.4938 86.3551 87.8923 88.605L93.1792 90.8069H74.973H74.9677ZM100.971 85.4403C99.1575 85.4403 97.4661 85.1903 96.1789 84.9191C89.6209 83.5521 82.6746 79.7279 76.6165 74.1379C70.9467 68.9096 66.6758 62.6813 64.5908 56.5966C62.4261 50.2726 62.9154 44.9645 65.9737 41.6509C68.0108 39.4436 71.0957 38.2735 74.9039 38.2735C82.3023 38.2735 91.6208 42.6242 99.216 49.629C105.274 55.2138 109.651 61.8303 111.545 68.2607C112.545 71.67 113.662 77.9993 109.859 82.1214C107.471 84.7169 104.045 85.4403 100.976 85.4403H100.971ZM74.8986 40.5712C71.7499 40.5712 69.2447 41.4807 67.6544 43.2093C65.2291 45.8368 64.9046 50.4481 66.7555 55.8573C68.6916 61.5058 72.8509 67.5533 78.1643 72.4572C83.9192 77.7653 90.4825 81.398 96.6417 82.6798C99.6415 83.3075 105.13 83.8659 108.162 80.5736C111.194 77.2866 110.199 71.8562 109.332 68.9149C107.556 62.8834 103.407 56.6339 97.6522 51.3257C90.4613 44.6932 81.7438 40.5765 74.8933 40.5765L74.8986 40.5712ZM131.958 85.4403C128.884 85.4403 125.464 84.7169 123.071 82.1214C116.842 75.3665 121.613 60.7931 133.713 49.6344C139.772 44.0497 146.718 40.2202 153.276 38.8532C154.935 38.5075 156.552 38.332 158.073 38.332C161.935 38.332 164.924 39.4489 166.956 41.6509C173.189 48.4057 168.413 62.9845 156.313 74.1379C150.255 79.7226 143.309 83.5521 136.75 84.9191C135.463 85.1903 133.772 85.4403 131.958 85.4403ZM158.079 40.6244C156.733 40.6244 155.233 40.7893 153.749 41.0978C147.59 42.3796 141.027 46.007 135.272 51.3204C124.48 61.2718 119.571 74.941 124.762 80.5683C127.794 83.8606 133.283 83.3021 136.288 82.6745C142.447 81.3927 149.005 77.76 154.765 72.4519C165.557 62.5005 170.471 48.8312 165.28 43.204C163.701 41.4913 161.281 40.6244 158.084 40.6244H158.079Z" fill="#1F1F1F"/>
<path d="M185.896 195.353C165.036 191.64 144.479 186.454 124.092 180.737C113.853 177.864 103.657 174.859 93.461 171.838C83.8712 168.998 74.2549 166.2 64.7981 162.929C55.3414 159.658 46.491 156.079 37.8799 151.462C29.9283 147.196 22.2853 142.133 15.8708 135.745C9.86063 129.762 4.78121 122.501 2.47818 114.263C0.175158 106.024 0.627253 97.4022 5.22266 90.3814C9.81808 83.3606 17.5303 79.712 25.3116 77.6483C29.5135 76.5367 33.811 75.8505 38.1192 75.2921C43.438 74.6006 48.778 74.1273 54.134 73.8613C56.7455 73.7283 59.3624 73.6539 61.9792 73.6167C62.7823 73.606 62.7345 70.9679 61.9154 70.9785C51.4853 71.1168 40.9382 71.8615 30.6729 73.7922C22.6097 75.308 14.2007 77.9355 8.18522 83.7914C1.99418 89.8123 -0.4365 98.4393 0.0634641 106.912C0.584703 115.736 4.05254 123.996 9.28088 131.059C14.5731 138.208 21.5034 144.053 28.9284 148.882C37.2682 154.308 46.3208 158.579 55.5754 162.19C65.0109 165.871 74.6964 168.876 84.4031 171.774C94.6949 174.849 104.992 177.896 115.316 180.864C136.006 186.811 156.829 192.358 177.965 196.496C180.63 197.017 183.295 197.517 185.97 197.991C186.662 198.113 186.784 195.507 185.906 195.353H185.896Z" fill="#FE803A"/>
<path d="M79.8989 74.1326C91.9566 74.9783 103.945 76.776 115.737 79.4195C127.534 82.0629 139.134 85.552 150.468 89.7645C161.803 93.9769 172.961 98.9553 183.737 104.561C188.811 107.199 193.875 109.96 198.369 113.529C202.507 116.81 206.4 120.938 207.895 126.134C208.528 128.325 208.602 130.618 207.73 132.756C206.858 134.894 205.188 136.628 203.236 137.867C198.837 140.66 193.332 141.25 188.242 141.351C186.647 141.383 185.051 141.346 183.455 141.255C182.689 141.213 182.673 143.846 183.519 143.894C193.056 144.436 208.235 143.277 209.469 130.98C210.017 125.538 207.507 120.161 204.044 116.098C200.257 111.656 195.252 108.29 190.231 105.402C184.886 102.327 179.333 99.5776 173.764 96.9395C168.127 94.2748 162.404 91.7803 156.606 89.4826C145.043 84.8925 133.177 81.047 121.093 78.0632C109.04 75.0847 96.7647 72.9678 84.3933 71.8615C82.8721 71.7232 81.3456 71.6062 79.8245 71.4998C79.0639 71.4466 79.0373 74.0794 79.8883 74.1379L79.8989 74.1326Z" fill="#FE803A"/>
<path d="M144.155 31.1303C148.644 36.5129 152.707 42.2253 156.526 48.1025C156.856 48.6131 157.234 47.9057 157.303 47.6079C157.441 47.0228 157.383 46.3207 157.053 45.8101C153.234 39.9382 149.171 34.2205 144.681 28.8379C144.309 28.3858 143.99 28.9815 143.905 29.3326C143.783 29.8591 143.783 30.6835 144.155 31.1303Z" fill="#FE803A"/>
</svg>
