<svg width="220" height="215" viewBox="0 0 220 215" fill="none" xmlns="http://www.w3.org/2000/svg">
<path d="M132.044 2.92056C150.026 6.15506 188.585 13.0846 207.862 46.692C228.586 82.8188 219.001 135.779 193.071 150.64C170.852 163.373 150.432 140.233 121.441 155.246C99.6932 166.51 102.386 184.085 80.2591 193.204C61.941 200.756 37.4845 198.026 21.5124 185.89C-18.3256 155.625 8.98076 77.7368 11.0071 72.1671C16.36 57.4629 25.9118 31.2076 52.8281 14.1357C84.1112 -5.69937 117.621 0.330788 132.044 2.92056Z" fill="#F4F4F4"/>
<path d="M27.5537 92.9665C26.8115 90.756 25.4678 88.8814 24.4167 86.8226C23.6745 85.3706 23.0135 83.561 23.8099 81.9898C24.7743 80.0881 27.1961 79.7793 29.1033 79.9256C31.0104 80.0719 32.9771 80.8629 34.6295 81.9735C36.282 83.0842 37.8261 84.6392 39.0939 86.2862C39.7441 87.1314 40.3509 88.02 40.8927 88.941C41.4345 89.8621 42.1984 90.9673 42.2147 92.0238C42.2255 92.9503 41.3478 93.8984 40.7897 94.554C40.1883 95.2583 39.5111 95.8976 38.7797 96.4719C37.3114 97.6205 35.6264 98.5199 33.8548 99.0996C29.8293 100.416 25.2999 100.21 21.5236 98.249C20.7705 97.8589 20.5429 100.465 21.2743 100.85C25.0723 102.822 29.58 103.114 33.6543 101.868C35.6969 101.245 37.6311 100.281 39.2998 98.9425C41.0931 97.5013 42.9623 95.5346 43.3091 93.1778C43.7208 90.3822 42.2688 87.8358 40.7897 85.5819C39.4732 83.5773 37.8966 81.7352 36.0274 80.229C34.2557 78.7986 32.1861 77.7205 29.9268 77.3521C27.7217 76.989 25.0669 77.2329 23.5715 79.0858C21.9516 81.0904 22.0437 84.2274 22.748 86.5625C23.5932 89.369 25.6575 91.5904 26.5839 94.3535C26.7085 94.7274 27.0119 95.2637 27.3966 94.814C27.7542 94.3969 27.7217 93.4541 27.5646 92.9719L27.5537 92.9665Z" fill="#1FC8FE"/>
<path d="M167.759 14.3469C169.374 13.0304 170.517 11.3237 171.909 9.79585C172.89 8.7231 174.19 7.60159 175.756 7.76954C177.647 7.97542 178.666 9.90421 179.142 11.5458C179.641 13.2633 179.576 15.0783 179.164 16.8067C178.752 18.535 177.94 20.3175 176.964 21.8941C176.46 22.7014 175.913 23.487 175.312 24.2292C174.71 24.9715 174.028 25.9575 173.15 26.3043C172.381 26.6077 171.313 26.1688 170.587 25.9088C169.807 25.627 169.065 25.264 168.355 24.8306C166.936 23.9637 165.657 22.8422 164.617 21.5419C162.255 18.5892 161.003 14.7424 161.453 10.9715C161.545 10.2184 159.291 10.8469 159.204 11.5783C158.749 15.3709 159.92 19.2339 162.238 22.2463C163.403 23.7579 164.812 25.069 166.459 26.0442C168.225 27.0899 170.457 28.0326 172.538 27.5829C175.003 27.052 176.677 25.0365 178.091 23.0915C179.354 21.3631 180.399 19.4614 181.071 17.4297C181.71 15.5009 181.96 13.4313 181.559 11.4266C181.158 9.42201 180.128 7.33069 178.113 6.65887C175.929 5.93286 173.334 7.0002 171.606 8.31675C169.525 9.90421 168.317 12.326 166.302 13.9731C166.031 14.1952 165.673 14.6124 166.172 14.7966C166.632 14.9646 167.413 14.6395 167.765 14.3577L167.759 14.3469Z" fill="#1FC8FE"/>
<path d="M77.3217 74.6864C74.8403 74.7569 72.4672 74.3018 70.2296 73.2073C68.1545 72.1888 66.2962 70.7801 64.557 69.2685C61.3063 66.4295 58.3697 63.0433 56.4897 59.1315C55.4928 57.0511 54.7885 54.808 54.6314 52.4946C54.6097 52.1532 54.5393 51.1509 54.0137 51.1672C53.4882 51.1834 53.4394 52.2183 53.4611 52.5271C53.7916 57.3545 55.6662 61.8134 58.5214 65.6872C59.903 67.5618 61.4905 69.2848 63.1971 70.8668C65.0013 72.5355 66.9138 74.123 69.0647 75.3257C71.6383 76.7669 74.4393 77.455 77.3867 77.3737C78.2102 77.3521 78.1506 74.6648 77.3217 74.6864Z" fill="#F07E43"/>
<path d="M136.741 51.4218C130.294 53.9737 124.139 57.1757 117.946 60.2693C111.743 63.3684 105.447 66.2615 98.962 68.7213C95.2507 70.1299 91.496 71.3977 87.6927 72.5247C86.815 72.7847 87.1075 75.407 87.7577 75.212C94.4542 73.2236 101.015 70.8018 107.414 68.0061C113.813 65.2104 120.059 61.9218 126.36 58.8335C129.893 57.1052 133.458 55.4473 137.115 54.0007C137.836 53.7136 137.608 51.0751 136.741 51.4164V51.4218Z" fill="#F07E43"/>
<path d="M162.996 107.042C166.491 105.818 169.915 104.404 173.236 102.762C176.162 101.316 179.044 99.7065 181.547 97.5935C184.051 95.4805 186.034 92.8528 187.404 89.8458C188.775 86.8389 189.636 83.301 190.108 79.8985C191.04 73.1911 190.211 66.2074 186.575 60.3885C183.568 55.572 178.898 51.8824 173.746 49.5852C166.605 46.3994 158.592 46.0635 150.963 47.3205C150.096 47.4613 150.281 50.1324 151.028 50.0078C157.671 48.9079 164.676 48.9621 171.085 51.2214C176.189 53.0201 180.93 56.0975 184.338 60.3344C185.974 62.3661 187.307 64.6633 188.125 67.1447C189.149 70.2329 189.441 73.4999 189.214 76.7399C188.77 83.0247 186.868 89.6725 182.171 94.1152C179.651 96.4991 176.628 98.2707 173.551 99.8311C170.013 101.619 166.356 103.152 162.612 104.463C161.897 104.713 162.092 107.362 162.986 107.048L162.996 107.042Z" fill="#F07E43"/>
<path d="M60.5593 114.422C63.1653 113.511 65.8418 112.829 68.5562 112.363C69.0709 112.276 69.1251 111.404 69.1088 111.003C69.098 110.732 68.9896 109.589 68.4912 109.676C65.663 110.163 62.8944 110.895 60.1855 111.837C60.0013 111.902 59.8821 112.32 59.8496 112.466C59.7737 112.785 59.7629 113.176 59.8171 113.501C59.8821 113.88 60.0446 114.6 60.5593 114.422Z" fill="#F07E43"/>
<path d="M157.464 95.0525C156.483 91.3304 153.108 88.7406 149.261 88.7406H147.105C148.329 84.5363 149.001 80.0557 149.001 75.3962C149.001 51.6982 131.853 32.4158 110.783 32.4158C89.7128 32.4158 72.5597 51.6982 72.5597 75.3962C72.5597 80.0557 73.2315 84.5363 74.4559 88.7406H72.2996C68.4474 88.7406 65.0775 91.3304 64.0968 95.0525C59.4916 112.531 48.7099 157.516 52.4158 183.95C53.7053 193.144 56.7176 199.879 62.8345 204.999C72.0937 212.746 85.4381 213.548 87.9845 213.716C97.1191 214.317 97.6772 211.906 109.873 211.809C122.833 211.706 123.759 214.41 133.587 213.716C136.367 213.521 149.57 212.67 158.737 204.999C164.854 199.879 167.866 193.144 169.156 183.95C172.862 157.516 162.075 112.531 157.475 95.0525H157.464ZM80.589 75.3962C80.589 56.1301 94.1284 40.4506 110.772 40.4506C127.416 40.4506 140.956 56.1246 140.956 75.3962C140.956 80.1207 140.138 84.623 138.664 88.7406H82.8808C81.4071 84.6284 80.589 80.1207 80.589 75.3962Z" fill="#ED1676"/>
<path d="M136.481 214.995C133.279 214.995 131.09 214.583 128.641 214.128C125.623 213.564 122.204 212.919 115.833 212.974C109.911 213.022 106.801 213.618 104.049 214.149C101.139 214.707 98.6255 215.19 93.8578 214.881H93.7819C83.282 214.193 74.1365 211.001 68.0305 205.892C61.9407 200.8 58.6033 194.081 57.2055 184.112C53.4996 157.667 64.1567 112.812 68.9136 94.7544C70.0297 90.523 73.8656 87.5702 78.2487 87.5702H78.8772C77.8586 83.6097 77.3439 79.5246 77.3439 75.3961C77.3439 51.0533 95.0118 31.2454 116.732 31.2454C138.453 31.2454 156.121 51.0533 156.121 75.3961C156.121 79.5246 155.606 83.6097 154.587 87.5702H155.216C159.599 87.5702 163.435 90.523 164.551 94.7544C169.308 112.812 179.97 157.673 176.259 184.112C174.861 194.081 171.524 200.8 165.434 205.892C159.312 211.018 150.41 214.122 139.704 214.875H139.612C138.458 214.962 137.418 215 136.475 215L136.481 214.995ZM116.559 210.633C122.681 210.633 126.067 211.267 129.069 211.83C132.087 212.394 134.687 212.882 139.455 212.546H139.547C152.453 211.635 159.935 207.447 163.944 204.099C169.557 199.402 172.645 193.139 173.956 183.787C177.608 157.765 167.022 113.273 162.303 95.3503C161.457 92.1429 158.548 89.9053 155.227 89.9053H151.51L151.943 88.41C153.168 84.2002 153.791 79.8225 153.791 75.3961C153.791 52.3374 137.169 33.5805 116.738 33.5805C96.3067 33.5805 79.6845 52.3374 79.6845 75.3961C79.6845 79.8225 80.3075 84.2002 81.532 88.41L81.9654 89.9053H78.2487C74.9275 89.9053 72.0181 92.1429 71.1729 95.3503C66.4539 113.273 55.8672 157.765 59.5189 183.787C60.8301 193.139 63.9183 199.402 69.5313 204.099C75.258 208.888 83.9213 211.89 93.9336 212.54H94.0095C98.4793 212.838 100.744 212.405 103.61 211.852C106.454 211.305 109.684 210.682 115.817 210.633C116.066 210.633 116.315 210.633 116.559 210.633ZM145.453 89.9053H88.0227L87.7463 89.1305C86.1806 84.7583 85.3841 80.1368 85.3841 75.3961C85.3841 55.4852 99.4491 39.2856 116.738 39.2856C134.026 39.2856 148.086 55.4852 148.086 75.3961C148.086 80.1368 147.289 84.7583 145.724 89.1305L145.447 89.9053H145.453ZM89.6805 87.5702H143.8C145.101 83.6801 145.756 79.5896 145.756 75.3961C145.756 56.7692 132.742 41.6207 116.743 41.6207C100.744 41.6207 87.7301 56.7747 87.7301 75.3961C87.7301 79.5896 88.3857 83.6855 89.686 87.5702H89.6805Z" fill="#1F1F1F"/>
<path d="M195.06 165.691C194.513 158.724 190.449 152.699 184.592 149.004C177.777 144.702 169.319 144.269 161.588 145.797C153.12 147.471 145.361 151.415 137.711 155.273C129.942 159.19 122.037 162.711 113.791 165.502C105.523 168.297 97.0331 170.443 88.4511 172.003C80.2104 173.504 71.7909 174.615 63.404 174.078C55.5805 173.58 47.6811 171.543 41.288 166.851C35.7996 162.82 31.2486 156.893 29.8128 150.147C28.2958 143.023 31.254 136.256 35.8375 130.897C38.319 127.993 41.2392 125.485 44.3058 123.22C47.6215 120.766 51.1486 118.588 54.8653 116.8C56.7183 115.906 58.6199 115.115 60.5596 114.432C61.2747 114.178 61.0797 111.534 60.1857 111.848C52.4706 114.579 45.2268 119.016 39.175 124.526C33.7083 129.5 29.2439 135.795 28.3716 143.304C27.5535 150.359 30.0404 157.418 34.3422 162.961C38.9258 168.866 45.3189 172.87 52.4598 174.929C60.5108 177.242 69.0115 177.259 77.2847 176.375C85.5579 175.492 94.4921 173.737 102.874 171.51C111.309 169.273 119.593 166.417 127.585 162.907C135.63 159.374 143.237 154.883 151.402 151.621C159.356 148.441 168.257 146.501 176.763 148.473C183.579 150.055 189.989 154.639 192.752 161.2C193.358 162.636 193.765 164.18 193.884 165.74C193.911 166.081 193.976 167.084 194.502 167.067C195 167.057 195.081 166.016 195.054 165.708L195.06 165.691Z" fill="#F07E43"/>
<path d="M150.964 47.326C146.082 48.155 141.341 49.6124 136.736 51.422C136.016 51.7037 136.243 54.3477 137.11 54.0063C141.612 52.2347 146.25 50.826 151.023 50.0133C151.89 49.867 151.7 47.2014 150.958 47.326H150.964Z" fill="#F07E43"/>
</svg>
