<svg width="210" height="215" viewBox="0 0 210 215" fill="none" xmlns="http://www.w3.org/2000/svg">
<path d="M60.1411 10.4198C74.1553 9.59027 76.2523 17.5918 96.0989 18.7871C121.16 20.2967 127.739 8.13732 142.928 10.8938C170.081 15.8245 195.136 63.0607 182.9 89.7599C172.966 111.425 145.417 104.124 131.428 130.494C120.933 150.279 132.103 162.098 120.212 180.471C110.366 195.686 90.5499 206.356 72.2283 205.542C26.5121 203.507 6.52117 130.726 5.15066 125.481C1.52345 111.637 -4.95298 86.921 6.40782 60.0776C15.0328 39.6848 34.8794 11.9191 60.1411 10.4198Z" fill="#F4F4F4"/>
<path d="M51.2801 206.233C52.8927 196.783 55.4483 187.504 58.9158 178.57C59.8999 176.03 60.9612 173.521 62.0896 171.043L61.5486 170.847C64.9233 179.065 68.6794 187.288 74.1872 194.321C75.7432 196.309 77.4331 198.19 79.2673 199.921L79.2416 198.386C69.0606 194.125 58.8797 189.869 48.6988 185.608C45.8341 184.408 42.9694 183.212 40.1048 182.012L40.3315 183.624C50.9349 183.568 61.4249 181.754 71.7759 179.564C74.7024 178.946 77.6237 178.297 80.5399 177.648L80.0556 176.174C76.5778 181.692 70.9876 185.402 66.1908 189.663C61.394 193.924 56.69 198.973 52.6712 204.259C50.4093 207.232 48.3124 210.334 46.3905 213.533C46.2051 213.837 46.3442 214.373 46.4884 214.667C46.5966 214.894 46.844 215.172 47.0294 214.863C50.4712 209.139 54.4745 203.765 58.9673 198.824C61.1931 196.376 63.5374 194.037 65.995 191.817C68.4527 189.596 70.9876 187.607 73.4607 185.469C76.1862 183.114 78.7675 180.569 80.6997 177.503C80.8748 177.225 80.71 175.922 80.2153 176.03C69.8798 178.328 59.5031 180.636 48.9409 181.574C45.9681 181.837 42.99 181.991 40.0069 182.007C39.7286 182.007 39.7802 182.645 39.8008 182.779C39.842 183.053 39.945 183.496 40.2336 183.619C50.4145 187.88 60.5954 192.136 70.7763 196.397C73.641 197.597 76.5057 198.793 79.3704 199.993C79.6537 200.112 79.695 199.586 79.695 199.442C79.6898 199.107 79.5971 198.7 79.3446 198.458C72.9712 192.425 68.566 184.712 64.9543 176.792C63.9186 174.52 62.9449 172.222 61.9968 169.914C61.9144 169.718 61.6104 169.383 61.4558 169.718C57.4474 178.529 54.3251 187.746 52.156 197.18C51.548 199.834 51.0122 202.508 50.5536 205.192C50.4918 205.563 50.5536 206.032 50.7855 206.336C50.9709 206.578 51.2286 206.578 51.2852 206.233H51.2801Z" fill="#ED1676"/>
<path d="M58.714 113.327C53.7214 124.62 52.5725 138.336 59.6569 149.027C66.0818 158.718 77.4065 164.293 88.2985 167.328C100.489 170.723 113.339 170.96 125.854 169.59C139.049 168.142 152.001 164.937 164.722 161.227C178.113 157.322 191.282 152.716 204.416 148.038C206.075 147.445 207.734 146.853 209.393 146.26C210.073 146.018 209.887 143.498 209.037 143.802C196.095 148.424 183.147 153.051 170.003 157.07C157.561 160.877 144.917 164.272 132.036 166.215C119.841 168.054 107.29 168.585 95.1046 166.349C89.1022 165.246 83.2286 163.453 77.695 160.877C72.7643 158.584 68.0448 155.606 64.2012 151.727C60.3576 147.847 57.2868 142.772 56.2409 137.192C55.1229 131.221 55.9627 125.022 57.8999 119.308C58.3843 117.886 58.9356 116.485 59.5435 115.109C59.7702 114.594 59.7651 113.801 59.4972 113.301C59.2653 112.858 58.9201 112.842 58.7089 113.321L58.714 113.327Z" fill="#FE803A"/>
<path d="M138.336 120.205C142.664 117.933 146.899 115.485 151.021 112.858C154.756 110.477 158.456 107.999 161.831 105.129C165.02 102.414 167.941 99.3072 170.074 95.6851C172.207 92.0631 173.439 88.0598 173.604 83.9379C173.768 79.8161 172.908 75.6736 170.584 72.2268C168.642 69.3415 165.788 67.2033 162.609 65.8431C155.648 62.8702 147.744 63.1484 140.376 63.9264C130.767 64.9466 121.287 67.0796 112.157 70.238C111.008 70.6347 109.865 71.052 108.726 71.4797C108.041 71.7373 108.247 74.2516 109.081 73.9373C117.835 70.6399 126.95 68.3059 136.213 67.0075C143.695 65.9564 151.614 65.199 159.017 67.1672C162.207 68.0122 165.344 69.4703 167.771 71.7373C170.409 74.2001 172.042 77.4873 172.429 81.0732C173.289 89.0181 168.513 96.2674 162.913 101.409C159.893 104.181 156.539 106.556 153.128 108.813C149.223 111.394 145.209 113.821 141.103 116.078C140.067 116.65 139.027 117.206 137.981 117.758C137.301 118.113 137.594 120.607 138.336 120.215V120.205Z" fill="#FE803A"/>
<path d="M39.7899 57.7951C32.0048 61.6645 25.111 67.059 19.6548 73.8394C14.1985 80.6198 10.5146 87.9824 8.93284 96.1952C7.35108 104.403 8.08786 113.208 12.4776 120.468C16.584 127.258 23.3953 132.024 30.6034 135.059C39.151 138.655 48.4509 140.098 57.6838 140.294C58.8379 140.319 59.992 140.325 61.141 140.314C61.9138 140.309 61.8778 137.754 61.0792 137.759C52.1399 137.836 43.0925 136.919 34.5964 134.018C27.2441 131.509 20.0875 127.506 15.1671 121.369C12.7558 118.36 11.0195 114.893 10.0869 111.147C9.15438 107.401 9.08225 103.558 9.55626 99.776C10.5558 91.8363 14.0594 84.3707 18.7737 77.9715C23.6787 71.3199 29.9902 65.8276 37.2035 61.7985C38.1721 61.2575 39.1562 60.7422 40.1454 60.2476C40.8255 59.9076 40.5524 57.4139 39.7899 57.79V57.7951Z" fill="#FE803A"/>
<path d="M120.798 45.9398C105.774 44.9763 90.6522 45.5998 75.7569 47.8152C71.5321 48.4438 67.3278 49.1909 63.1493 50.0874C62.3146 50.2677 62.531 52.7872 63.2111 52.6429C77.9312 49.4949 93.0223 47.9956 108.072 48.0574C112.338 48.078 116.604 48.2274 120.86 48.4953C121.597 48.5417 121.623 45.9913 120.798 45.9398Z" fill="#FE803A"/>
<path d="M140.187 14.9847C139.481 12.8826 138.203 11.0999 137.204 9.14202C136.498 7.76121 135.869 6.04034 136.627 4.54618C137.544 2.73773 139.847 2.44405 141.66 2.58316C143.474 2.72227 145.344 3.4745 146.916 4.53072C148.487 5.58694 149.956 7.06565 151.161 8.63195C151.78 9.4357 152.357 10.2807 152.872 11.1566C153.387 12.0325 154.114 13.0835 154.129 14.0882C154.139 14.9693 153.305 15.8709 152.774 16.4943C152.202 17.1641 151.558 17.7721 150.862 18.3183C149.466 19.4105 147.864 20.2658 146.179 20.8171C142.351 22.0691 138.044 21.8733 134.452 20.0082C133.736 19.6372 133.52 22.1155 134.215 22.4813C137.827 24.3567 142.114 24.635 145.988 23.4499C147.931 22.8574 149.77 21.9403 151.357 20.6677C153.062 19.2972 154.84 17.4269 155.17 15.1857C155.561 12.5271 154.18 10.1055 152.774 7.96215C151.522 6.0558 150.023 4.30402 148.245 2.87169C146.56 1.51148 144.592 0.486175 142.444 0.135819C140.347 -0.209385 137.822 0.0224685 136.4 1.78455C134.859 3.6909 134.947 6.67408 135.617 8.89471C136.421 11.5636 138.384 13.676 139.265 16.3037C139.383 16.6592 139.672 17.1693 140.037 16.7416C140.377 16.3449 140.347 15.4484 140.197 14.9899L140.187 14.9847Z" fill="#1FC8FE"/>
<path d="M157.572 157.904L124.015 124.945C119.841 120.849 119.95 114.094 124.247 110.127L132.403 102.599C137.746 97.6634 136.38 88.8891 129.791 85.8131L48.2452 47.7583C40.1252 43.9714 31.4076 51.705 34.2001 60.2166L62.7386 147.192C65.0623 154.266 73.9243 156.57 79.396 151.52L85.9497 145.472C90.2931 141.463 97.1147 141.958 100.835 146.543L133.948 187.38C138.544 193.048 147.427 192.218 150.894 185.804L159.406 170.058C161.575 166.05 160.828 161.088 157.577 157.894L157.572 157.904Z" fill="#ED1676"/>
<path d="M149.101 192.291C145.701 192.291 142.47 190.766 140.301 188.091L107.187 147.254C105.585 145.276 103.302 144.086 100.762 143.9C98.2223 143.715 95.7904 144.565 93.9201 146.296L87.3716 152.345C84.5224 154.973 80.5808 155.962 76.83 154.988C73.0791 154.014 70.1166 151.232 68.9058 147.548L40.3672 60.5723C38.9349 56.2083 40.1817 51.6022 43.6183 48.552C47.0549 45.5018 51.7744 44.8166 55.9374 46.759L137.478 84.8138C140.909 86.4162 143.305 89.6055 143.887 93.346C144.469 97.0866 143.155 100.853 140.373 103.424L132.217 110.951C130.367 112.662 129.322 114.991 129.285 117.51C129.244 120.03 130.213 122.389 132.016 124.157L165.573 157.116C169.159 160.635 169.994 166.179 167.603 170.599L159.091 186.345C157.283 189.689 153.949 191.894 150.168 192.244C149.812 192.275 149.462 192.296 149.106 192.296L149.101 192.291ZM100.077 141.654C100.355 141.654 100.639 141.664 100.922 141.685C104.08 141.912 106.919 143.395 108.913 145.853L142.027 186.69C143.949 189.06 146.922 190.312 149.956 190.029C152.996 189.745 155.681 187.973 157.134 185.283L165.645 169.538C167.567 165.983 166.897 161.526 164.012 158.698L130.455 125.738C128.219 123.544 127.013 120.607 127.065 117.474C127.111 114.342 128.41 111.441 130.713 109.318L138.869 101.791C141.141 99.6936 142.171 96.7414 141.692 93.6861C141.218 90.6308 139.338 88.1319 136.54 86.8232L54.9894 48.7684C51.6404 47.2073 47.8432 47.7585 45.0816 50.211C42.3199 52.6635 41.3152 56.368 42.4694 59.8767L71.0079 146.853C71.9817 149.815 74.362 152.051 77.3813 152.834C80.4005 153.618 83.5692 152.824 85.8619 150.706L92.4105 144.658C94.5281 142.7 97.2279 141.649 100.077 141.649V141.654Z" fill="#1F1F1F"/>
<path d="M66.1338 140.165C74.7896 139.727 83.4197 138.573 91.9055 136.816C100.391 135.059 108.491 132.745 116.513 129.834C121.057 128.186 125.535 126.346 129.929 124.337C130.615 124.023 130.362 121.519 129.574 121.879C121.835 125.419 113.849 128.412 105.683 130.803C97.5061 133.199 89.1542 135.002 80.7199 136.187C75.8613 136.872 70.9769 137.357 66.0771 137.604C65.2837 137.645 65.3609 140.201 66.1389 140.16L66.1338 140.165Z" fill="#FE803A"/>
<path d="M129.923 124.337C132.762 123.033 135.57 121.658 138.337 120.205C139.017 119.849 138.723 117.356 137.982 117.747C135.215 119.195 132.407 120.576 129.568 121.879C128.883 122.194 129.135 124.698 129.923 124.337Z" fill="#FE803A"/>
<path d="M61.1354 140.314C62.7996 140.299 64.4638 140.247 66.128 140.165C66.6174 140.139 66.669 139.206 66.6535 138.872C66.6381 138.573 66.6071 138.243 66.468 137.97C66.3907 137.82 66.2671 137.594 66.0661 137.604C64.402 137.687 62.7378 137.738 61.0736 137.754C60.8829 137.754 60.749 137.996 60.6872 138.14C60.5738 138.408 60.5326 138.763 60.548 139.047C60.5635 139.33 60.5944 139.675 60.7335 139.948C60.816 140.103 60.9293 140.314 61.1354 140.314Z" fill="#FE803A"/>
</svg>
